<svg width="129" height="54" viewBox="0 0 129 54" fill="none" xmlns="http://www.w3.org/2000/svg">
<path d="M63.0277 10.2947C64.8298 10.2947 66.2924 10.8414 67.4154 11.935C68.5384 13.0286 69.1155 14.4763 69.1466 16.2781L69.3315 26.9953H63.5658L63.4146 18.231C63.4022 17.5123 63.1892 16.9395 62.7756 16.5125C62.3722 16.075 61.8268 15.8563 61.1393 15.8563C60.4205 15.8563 59.8359 16.0803 59.3853 16.5281C58.9451 16.976 58.7313 17.5644 58.7438 18.2935L58.894 26.9953H53.1283L52.847 10.6852H58.6126L58.6333 11.8882C59.8338 10.8258 61.2986 10.2947 63.0277 10.2947Z" fill="#2592EA"/>
<path d="M82.3279 15.9188H78.5154L78.589 20.1838C78.5976 20.6837 78.7502 21.0795 79.0469 21.3711C79.354 21.6628 79.7993 21.8086 80.3826 21.8086C80.9972 21.8086 81.6763 21.6263 82.42 21.2618L82.5128 26.636C81.5631 27.1359 80.4684 27.3859 79.2288 27.3859C77.8017 27.3859 76.6043 27.1099 75.6364 26.5579C74.6684 25.9954 73.9629 25.256 73.52 24.3394C73.0875 23.4229 72.8608 22.3554 72.8398 21.1368L72.7497 15.9188H70.5779L70.4876 10.6852H72.6595L72.5932 6.84204H78.3588L78.4251 10.6852H82.2376L82.3279 15.9188Z" fill="#2592EA"/>
<path d="M87.6506 9.26356C86.6506 9.26356 85.8116 8.93548 85.1336 8.27933C84.4556 7.62318 84.1081 6.80038 84.091 5.81095C84.0739 4.82151 84.3931 3.99872 85.0484 3.34257C85.7038 2.68641 86.5314 2.35834 87.5314 2.35834C88.521 2.35834 89.3548 2.68641 90.0328 3.34257C90.7108 3.99872 91.0583 4.82151 91.0754 5.81095C91.0924 6.80038 90.7733 7.62318 90.118 8.27933C89.4626 8.93548 88.6401 9.26356 87.6506 9.26356ZM85.0658 26.9953L84.7845 10.6852H90.5501L90.8315 26.9953H85.0658Z" fill="#2592EA"/>
<path d="M101.979 27.3859C100.312 27.3859 98.7954 27.0161 97.4284 26.2767C96.0613 25.5268 94.9811 24.5009 94.1878 23.199C93.4048 21.8867 92.9995 20.4338 92.972 18.8403C92.9445 17.2467 93.2998 15.799 94.0377 14.4972C94.7859 13.1849 95.8307 12.159 97.1721 11.4195C98.5134 10.6696 100.017 10.2947 101.684 10.2947C103.319 10.2947 104.81 10.654 106.156 11.3726C107.501 12.0913 108.565 13.0755 109.347 14.3253L104.4 17.3717C104.142 16.9135 103.781 16.5489 103.318 16.2781C102.855 15.9969 102.342 15.8563 101.78 15.8563C100.936 15.8563 100.238 16.1427 99.6854 16.7156C99.143 17.278 98.8792 17.9862 98.8939 18.8403C98.9086 19.6943 99.1969 20.4025 99.7587 20.9649C100.32 21.5274 101.028 21.8086 101.883 21.8086C102.445 21.8086 102.953 21.6732 103.407 21.4024C103.861 21.1316 104.208 20.7671 104.45 20.3088L109.503 23.3552C108.764 24.605 107.734 25.5893 106.413 26.3079C105.092 27.0265 103.614 27.3859 101.979 27.3859Z" fill="#2592EA"/>
<path d="M121.144 26.9953L117.644 22.4803L116.986 23.2459L117.05 26.9953H111.285L110.887 3.95185H116.653L116.851 15.4189L120.769 10.6852H128.191L121.63 18.0435L128.706 26.9953H121.144Z" fill="#2592EA"/>
<path d="M59.1194 47.6134C56.484 47.6134 54.0639 46.8114 51.8591 45.2075L54.2516 41.6924C55.7804 42.7547 57.3051 43.2859 58.826 43.2859C60.1281 43.2859 60.7743 43.0099 60.7648 42.4579C60.76 42.1767 60.5688 41.9632 60.1913 41.8174C59.8136 41.6612 59.2066 41.4997 58.3704 41.3331C57.8896 41.2393 57.5081 41.1612 57.2257 41.0987C56.9432 41.0258 56.5559 40.9165 56.0638 40.7707C55.582 40.6144 55.1887 40.4582 54.8839 40.302C54.5893 40.1353 54.2522 39.9166 53.8726 39.6458C53.5031 39.3646 53.2115 39.0626 52.9976 38.7397C52.7836 38.4169 52.5998 38.0263 52.4461 37.568C52.2922 37.0993 52.2104 36.5838 52.2007 36.0214C52.18 34.8236 52.4853 33.803 53.1166 32.9593C53.7479 32.1157 54.5862 31.5012 55.6317 31.1159C56.6769 30.7201 57.8714 30.5222 59.2152 30.5222C61.6318 30.5222 63.8938 31.2148 66.001 32.6L63.5929 36.1151C62.0469 35.2611 60.6854 34.8341 59.5083 34.8341C58.4041 34.8341 57.8561 35.0684 57.8642 35.5371C57.8687 35.7975 58.0598 36.0058 58.4375 36.162C58.815 36.3078 59.3956 36.4536 60.1794 36.5994C60.6393 36.6932 61.021 36.7765 61.3243 36.8494C61.6275 36.9119 62.0147 37.016 62.486 37.1618C62.9572 37.3076 63.3505 37.4639 63.6659 37.6305C63.9915 37.7867 64.3391 38.0055 64.7085 38.2867C65.0777 38.5575 65.3746 38.8595 65.5991 39.1928C65.8234 39.5156 66.0126 39.9114 66.1665 40.3801C66.3202 40.8384 66.4019 41.3487 66.4116 41.9111C66.4327 43.1297 66.1174 44.1764 65.4658 45.0513C64.8245 45.9157 63.9554 46.5615 62.8586 46.9885C61.772 47.4051 60.5256 47.6134 59.1194 47.6134Z" fill="#2592EA"/>
<path d="M78.2219 30.9128H84.6594L77.7751 49.3944C77.2767 50.6963 76.503 51.7378 75.454 52.5189C74.4154 53.3001 73.2503 53.6906 71.9586 53.6906C71.1357 53.6906 70.2683 53.5292 69.3565 53.2063C68.4553 52.8939 67.6825 52.4773 67.0381 51.9565L69.132 47.4416C69.6502 47.8894 70.2374 48.1133 70.8936 48.1133C71.6436 48.1133 72.1637 47.7644 72.4537 47.0666L72.5434 46.8323L66.0969 30.9128H72.6594L75.5894 39.5365L78.2219 30.9128Z" fill="#2592EA"/>
<path d="M96.2464 30.5222C98.0485 30.5222 99.5111 31.069 100.634 32.1626C101.757 33.2562 102.334 34.7039 102.365 36.5057L102.55 47.2228H96.7845L96.6333 38.4585C96.6209 37.7399 96.4079 37.167 95.9943 36.74C95.5909 36.3026 95.0455 36.0839 94.358 36.0839C93.6392 36.0839 93.0546 36.3078 92.6039 36.7556C92.1638 37.2035 91.95 37.7919 91.9625 38.521L92.1126 47.2228H86.347L86.0657 30.9128H91.8313L91.852 32.1157C93.0525 31.0534 94.5172 30.5222 96.2464 30.5222Z" fill="#2592EA"/>
<path d="M113.354 47.6134C111.687 47.6134 110.17 47.2437 108.803 46.5042C107.436 45.7543 106.356 44.7284 105.563 43.4265C104.78 42.1142 104.374 40.6613 104.347 39.0678C104.319 37.4743 104.675 36.0266 105.413 34.7247C106.161 33.4124 107.206 32.3865 108.547 31.647C109.888 30.8971 111.392 30.5222 113.059 30.5222C114.694 30.5222 116.185 30.8815 117.531 31.6002C118.876 32.3188 119.94 33.303 120.722 34.5528L115.775 37.5993C115.517 37.141 115.156 36.7765 114.693 36.5057C114.23 36.2245 113.717 36.0839 113.155 36.0839C112.311 36.0839 111.613 36.3703 111.06 36.9431C110.518 37.5055 110.254 38.2138 110.269 39.0678C110.284 39.9218 110.572 40.6301 111.134 41.1925C111.695 41.7549 112.403 42.0361 113.258 42.0361C113.82 42.0361 114.328 41.9007 114.782 41.6299C115.235 41.3591 115.583 40.9946 115.825 40.5363L120.878 43.5828C120.139 44.8326 119.109 45.8168 117.788 46.5354C116.467 47.2541 114.989 47.6134 113.354 47.6134Z" fill="#2592EA"/>
<path d="M0.0506249 14.3953C-0.662864 6.1541 6.26562 -0.718778 14.5008 0.0603553L17.1912 0.314262C17.3329 0.327711 17.4535 0.363468 17.578 0.432426C18.4371 0.908972 18.5152 2.45998 17.6356 2.89727C16.7261 3.34909 16.0112 3.79754 15.5653 4.21661C13.7972 5.87901 16.9255 6.44751 22.5536 5.48711C25.4276 4.99665 28.3983 4.2019 30.8524 3.32012C33.0539 2.52911 35.3868 2.03702 37.7157 2.25762C43.9159 2.84507 48.6711 8.02017 48.7332 14.2479L49.0575 46.6951C49.0886 49.8173 46.3095 52.2206 43.2245 51.74C41.03 51.3979 39.3902 49.5185 37.9305 47.8445C36.074 45.7154 32.8177 44.193 28.9911 43.8133C29.3236 43.2656 29.5108 42.6228 29.4989 41.9412L29.4911 41.7615L29.1161 36.2615L22.1327 36.7381L22.5077 42.2381C22.5563 42.9501 22.815 43.5976 23.2186 44.1248C22.4786 44.2828 21.7683 44.4847 21.0946 44.7254C17.8469 45.8859 14.4221 47.2506 11.0145 46.7195C6.15442 45.9619 2.43973 41.9833 2.01547 37.0828L0.0506249 14.3953ZM20.6327 14.7371L21.3827 25.7371L28.3661 25.2606L27.6161 14.2615L20.6327 14.7371Z" fill="#2592EA"/>
</svg>
