<svg width="50" height="52" viewBox="0 0 50 52" fill="none" xmlns="http://www.w3.org/2000/svg">
<path d="M0.0506249 14.3953C-0.662864 6.1541 6.26562 -0.718778 14.5008 0.0603553L17.1912 0.314262C17.3329 0.327711 17.4535 0.363468 17.578 0.432426C18.4371 0.908972 18.5152 2.45998 17.6356 2.89727C16.7261 3.34909 16.0112 3.79754 15.5653 4.21661C13.7972 5.87901 16.9255 6.44751 22.5536 5.48711C25.4276 4.99665 28.3983 4.2019 30.8524 3.32012C33.0539 2.52911 35.3868 2.03702 37.7157 2.25762C43.9159 2.84507 48.6711 8.02017 48.7332 14.2479L49.0575 46.6951C49.0886 49.8173 46.3095 52.2206 43.2245 51.74C41.03 51.3979 39.3902 49.5185 37.9305 47.8445C36.074 45.7154 32.8177 44.193 28.9911 43.8133C29.3236 43.2656 29.5108 42.6228 29.4989 41.9412L29.4911 41.7615L29.1161 36.2615L22.1327 36.7381L22.5077 42.2381C22.5563 42.9501 22.815 43.5976 23.2186 44.1248C22.4786 44.2828 21.7683 44.4847 21.0946 44.7254C17.8469 45.8859 14.4221 47.2506 11.0145 46.7195C6.15442 45.9619 2.43973 41.9833 2.01547 37.0828L0.0506249 14.3953ZM20.6327 14.7371L21.3827 25.7371L28.3661 25.2606L27.6161 14.2615L20.6327 14.7371Z" fill="#2592EA"/>
</svg>
