<svg width="46" height="45" viewBox="0 0 46 45" fill="none" xmlns="http://www.w3.org/2000/svg">
<path d="M25.4561 44.8326C26.8849 44.5204 28.2675 43.9204 29.5137 43.0269L41.4092 34.4986C44.2905 32.4327 45.9999 29.1045 46 25.5591V13.5972C46 9.47346 43.7175 5.62782 39.9297 3.99762C27.4849 -1.35811 18.5453 -1.30915 6.11133 4.00446C2.30271 5.63206 0 9.48958 0 13.6314V23.8824C9.95299e-05 27.1246 1.43052 30.2016 3.90918 32.2916L16.0137 42.4976C17.3006 43.5827 18.7793 44.3285 20.3301 44.732C22.0931 32.9213 20.3429 23.0855 15.2373 20.1724C14.2209 19.5926 13.1207 19.2037 11.9561 18.9898C17.2495 16.8884 21.3559 12.4428 22.999 6.93512C24.7256 12.723 29.1746 17.3361 34.8604 19.2906C33.3292 19.4393 31.8961 19.8707 30.5986 20.6109C25.542 23.4964 23.7763 33.1729 25.4561 44.8326Z" fill="#2592EA"/>
</svg>
