<svg width="203" height="63" viewBox="0 0 203 63" fill="none" xmlns="http://www.w3.org/2000/svg">
<path d="M79.9219 47L77.8594 41.1875H64.4062L62.3438 47H54.375L66.8203 13.8828H75.6094L88.0781 47H79.9219ZM66.8203 34.3203H75.4453L71.1328 22.0859L66.8203 34.3203ZM105.68 21.9453C108.492 21.9453 110.758 22.7969 112.477 24.5C114.195 26.1875 115.055 28.4375 115.055 31.25V47H108.047V33.6172C108.047 32.1328 107.609 30.9453 106.734 30.0547C105.875 29.1641 104.727 28.7188 103.289 28.7188C101.789 28.7188 100.57 29.1797 99.6328 30.1016C98.7109 31.0078 98.25 32.2109 98.25 33.7109V47H91.2422V22.5312H98.25V24.9688C100.219 22.9531 102.695 21.9453 105.68 21.9453ZM134.672 28.9062H128.391V37.8828C128.391 39.8359 129.414 40.8125 131.461 40.8125C132.477 40.8125 133.547 40.5234 134.672 39.9453V46.5312C133.281 47.2344 131.719 47.5859 129.984 47.5859C127.109 47.5859 124.953 46.8203 123.516 45.2891C122.094 43.7422 121.383 41.6562 121.383 39.0312V28.9062H117.68V22.5312H121.383V16.4609H128.391V22.5312H134.672V28.9062ZM142.5 19.3906C141.281 19.3906 140.258 18.9844 139.43 18.1719C138.602 17.3438 138.188 16.3125 138.188 15.0781C138.188 13.8594 138.602 12.8438 139.43 12.0312C140.258 11.2187 141.281 10.8125 142.5 10.8125C143.75 10.8125 144.789 11.2187 145.617 12.0312C146.461 12.8438 146.883 13.8594 146.883 15.0781C146.883 16.3125 146.461 17.3438 145.617 18.1719C144.789 18.9844 143.75 19.3906 142.5 19.3906ZM139.008 47V22.5312H146.016V47H139.008ZM163.336 47.5859C159.57 47.5859 156.422 46.3594 153.891 43.9062C151.375 41.4531 150.117 38.4062 150.117 34.7656C150.117 31.125 151.375 28.0781 153.891 25.625C156.422 23.1719 159.57 21.9453 163.336 21.9453C165.773 21.9453 167.984 22.4922 169.969 23.5859C171.953 24.6641 173.516 26.1484 174.656 28.0391L168.562 31.7422C168.047 30.8203 167.328 30.0859 166.406 29.5391C165.484 28.9922 164.461 28.7188 163.336 28.7188C161.617 28.7188 160.188 29.2969 159.047 30.4531C157.906 31.6094 157.336 33.0469 157.336 34.7656C157.336 36.4844 157.906 37.9219 159.047 39.0781C160.188 40.2344 161.617 40.8125 163.336 40.8125C164.461 40.8125 165.484 40.5391 166.406 39.9922C167.328 39.4453 168.047 38.7109 168.562 37.7891L174.656 41.4688C173.516 43.375 171.953 44.875 169.969 45.9688C167.984 47.0469 165.773 47.5859 163.336 47.5859ZM193.359 47L186.938 39.125L185.109 41.0938V47H178.102V12.4297H185.109V31.6484L193.172 22.5312H202.242L191.883 33.8047L202.57 47H193.359Z" fill="white"/>
<path d="M25.4561 51.9723C26.8849 51.6601 28.2675 51.0601 29.5137 50.1666L41.4092 41.6383C44.2905 39.5724 45.9999 36.2442 46 32.6989V20.7369C46 16.6132 43.7175 12.7675 39.9297 11.1373C27.4849 5.7816 18.5453 5.83056 6.11133 11.1442C2.30271 12.7718 0 16.6293 0 20.7711V31.0221C9.95299e-05 34.2643 1.43052 37.3413 3.90918 39.4313L16.0137 49.6373C17.3006 50.7224 18.7793 51.4682 20.3301 51.8717C22.0931 40.061 20.3429 30.2252 15.2373 27.3121C14.2209 26.7323 13.1207 26.3434 11.9561 26.1295C17.2495 24.0281 21.3559 19.5825 22.999 14.0748C24.7256 19.8627 29.1746 24.4758 34.8604 26.4303C33.3292 26.5791 31.8961 27.0104 30.5986 27.7506C25.542 30.6361 23.7763 40.3126 25.4561 51.9723Z" fill="white"/>
</svg>
