<svg width="129" height="54" viewBox="0 0 129 54" fill="none" xmlns="http://www.w3.org/2000/svg">
<path d="M63.028 10.2958C64.8301 10.2958 66.2926 10.8426 67.4156 11.9362C68.5387 13.0298 69.1157 14.4775 69.1468 16.2793L69.3317 26.9965H63.5661L63.4149 18.2322C63.4025 17.5135 63.1895 16.9407 62.7759 16.5137C62.3725 16.0762 61.827 15.8575 61.1395 15.8575C60.4208 15.8575 59.8361 16.0814 59.3855 16.5293C58.9453 16.9771 58.7315 17.5656 58.7441 18.2947L58.8942 26.9965H53.1286L52.8472 10.6864H58.6128L58.6336 11.8894C59.834 10.827 61.2988 10.2958 63.028 10.2958Z" fill="white"/>
<path d="M82.3281 15.92H78.5156L78.5892 20.185C78.5978 20.6849 78.7505 21.0807 79.0472 21.3723C79.3543 21.6639 79.7995 21.8098 80.3828 21.8098C80.9974 21.8098 81.6766 21.6275 82.4203 21.263L82.513 26.6372C81.5633 27.1371 80.4687 27.3871 79.2291 27.3871C77.802 27.3871 76.6045 27.1111 75.6367 26.559C74.6686 25.9966 73.9632 25.2572 73.5203 24.3406C73.0878 23.4241 72.861 22.3565 72.84 21.138L72.75 15.92H70.5781L70.4878 10.6864H72.6597L72.5934 6.84324H78.359L78.4253 10.6864H82.2378L82.3281 15.92Z" fill="white"/>
<path d="M87.6508 9.26475C86.6508 9.26475 85.8118 8.93667 85.1338 8.28052C84.4558 7.62437 84.1083 6.80157 84.0912 5.81214C84.0742 4.8227 84.3933 3.99991 85.0487 3.34376C85.704 2.6876 86.5317 2.35953 87.5317 2.35953C88.5213 2.35953 89.355 2.6876 90.033 3.34376C90.711 3.99991 91.0585 4.8227 91.0756 5.81214C91.0927 6.80157 90.7735 7.62437 90.1182 8.28052C89.4629 8.93667 88.6404 9.26475 87.6508 9.26475ZM85.0661 26.9965L84.7847 10.6864H90.5503L90.8317 26.9965H85.0661Z" fill="white"/>
<path d="M101.979 27.3871C100.312 27.3871 98.7956 27.0173 97.4287 26.2778C96.0616 25.528 94.9814 24.5021 94.1881 23.2002C93.405 21.8879 92.9998 20.435 92.9723 18.8414C92.9448 17.2479 93.3 15.8002 94.038 14.4983C94.7862 13.186 95.831 12.1602 97.1724 11.4207C98.5136 10.6708 100.018 10.2958 101.684 10.2958C103.32 10.2958 104.81 10.6552 106.156 11.3738C107.502 12.0925 108.566 13.0767 109.348 14.3265L104.4 17.3729C104.142 16.9147 103.782 16.5501 103.319 16.2793C102.856 15.9981 102.343 15.8575 101.78 15.8575C100.936 15.8575 100.238 16.1439 99.6856 16.7168C99.1432 17.2792 98.8794 17.9874 98.8941 18.8414C98.9089 19.6955 99.1971 20.4037 99.7589 20.9661C100.321 21.5285 101.029 21.8098 101.883 21.8098C102.445 21.8098 102.953 21.6744 103.407 21.4036C103.861 21.1328 104.209 20.7682 104.451 20.31L109.503 23.3564C108.764 24.6062 107.735 25.5904 106.414 26.3091C105.093 27.0277 103.614 27.3871 101.979 27.3871Z" fill="white"/>
<path d="M121.144 26.9965L117.644 22.4815L116.986 23.247L117.05 26.9965H111.285L110.887 3.95304H116.653L116.851 15.4201L120.769 10.6864H128.191L121.63 18.0447L128.707 26.9965H121.144Z" fill="white"/>
<path d="M59.1196 47.6146C56.4842 47.6146 54.0641 46.8126 51.8594 45.2087L54.2519 41.6936C55.7806 42.7559 57.3054 43.2871 58.8262 43.2871C60.1283 43.2871 60.7746 43.0111 60.7651 42.4591C60.7602 42.1779 60.569 41.9644 60.1915 41.8186C59.8138 41.6624 59.2069 41.5009 58.3707 41.3343C57.8899 41.2405 57.5083 41.1624 57.226 41.0999C56.9435 41.027 56.5562 40.9177 56.0641 40.7719C55.5822 40.6156 55.1889 40.4594 54.8841 40.3032C54.5896 40.1365 54.2525 39.9178 53.8728 39.647C53.5034 39.3658 53.2117 39.0638 52.9978 38.7409C52.7839 38.418 52.6001 38.0275 52.4463 37.5692C52.2924 37.1005 52.2106 36.585 52.2009 36.0226C52.1802 34.8248 52.4855 33.8041 53.1168 32.9605C53.7481 32.1169 54.5865 31.5024 55.6319 31.117C56.6772 30.7213 57.8717 30.5234 59.2154 30.5234C61.6321 30.5234 63.894 31.216 66.0013 32.6012L63.5931 36.1163C62.0472 35.2623 60.6856 34.8352 59.5085 34.8352C58.4044 34.8352 57.8563 35.0696 57.8644 35.5383C57.8689 35.7986 58.06 36.0069 58.4377 36.1632C58.8152 36.309 59.3959 36.4548 60.1796 36.6006C60.6396 36.6943 61.0212 36.7777 61.3246 36.8506C61.6277 36.9131 62.0149 37.0172 62.4862 37.163C62.9575 37.3088 63.3508 37.4651 63.6662 37.6317C63.9918 37.7879 64.3393 38.0066 64.7087 38.2879C65.078 38.5586 65.3749 38.8607 65.5994 39.194C65.8237 39.5168 66.0128 39.9126 66.1667 40.3813C66.3205 40.8396 66.4022 41.3499 66.4119 41.9123C66.4329 43.1309 66.1176 44.1776 65.4661 45.0525C64.8247 45.9169 63.9556 46.5627 62.8588 46.9897C61.7723 47.4063 60.5259 47.6146 59.1196 47.6146Z" fill="white"/>
<path d="M78.2221 30.914H84.6596L77.7754 49.3956C77.277 50.6975 76.5033 51.739 75.4543 52.5201C74.4157 53.3012 73.2505 53.6918 71.9588 53.6918C71.1359 53.6918 70.2686 53.5304 69.3567 53.2075C68.4555 52.8951 67.6827 52.4785 67.0383 51.9577L69.1323 47.4427C69.6504 47.8906 70.2376 48.1145 70.8939 48.1145C71.6439 48.1145 72.1639 47.7656 72.4539 47.0678L72.5437 46.8335L66.0971 30.914H72.6596L75.5897 39.5377L78.2221 30.914Z" fill="white"/>
<path d="M96.2467 30.5234C98.0487 30.5234 99.5113 31.0702 100.634 32.1638C101.757 33.2574 102.334 34.7051 102.366 36.5069L102.55 47.224H96.7848L96.6336 38.4597C96.6212 37.7411 96.4082 37.1682 95.9945 36.7412C95.5912 36.3038 95.0457 36.0851 94.3582 36.0851C93.6395 36.0851 93.0548 36.309 92.6042 36.7568C92.164 37.2047 91.9502 37.7931 91.9628 38.5222L92.1129 47.224H86.3473L86.0659 30.914H91.8315L91.8523 32.1169C93.0527 31.0546 94.5175 30.5234 96.2467 30.5234Z" fill="white"/>
<path d="M113.354 47.6146C111.687 47.6146 110.171 47.2449 108.804 46.5054C107.437 45.7555 106.356 44.7296 105.563 43.4277C104.78 42.1154 104.375 40.6625 104.347 39.069C104.32 37.4755 104.675 36.0278 105.413 34.7259C106.161 33.4136 107.206 32.3877 108.547 31.6482C109.889 30.8983 111.392 30.5234 113.059 30.5234C114.695 30.5234 116.185 30.8827 117.531 31.6013C118.877 32.32 119.94 33.3042 120.722 34.554L115.775 37.6005C115.517 37.1422 115.157 36.7777 114.694 36.5069C114.23 36.2257 113.718 36.0851 113.155 36.0851C112.311 36.0851 111.613 36.3715 111.061 36.9443C110.518 37.5067 110.254 38.2149 110.269 39.069C110.284 39.923 110.572 40.6313 111.134 41.1937C111.696 41.7561 112.404 42.0373 113.258 42.0373C113.82 42.0373 114.328 41.9019 114.782 41.6311C115.236 41.3603 115.584 40.9958 115.826 40.5375L120.878 43.5839C120.139 44.8338 119.109 45.818 117.789 46.5366C116.468 47.2553 114.989 47.6146 113.354 47.6146Z" fill="white"/>
<path d="M0.0505881 14.3963C-0.662627 6.15528 6.26577 -0.718707 14.5008 0.0603327L17.1912 0.316192C17.3329 0.329611 17.4534 0.364435 17.5779 0.43338C18.4371 0.909886 18.5152 2.4619 17.6355 2.8992C16.7263 3.35094 16.012 3.79955 15.5662 4.21854C13.7981 5.88098 16.9262 6.44856 22.5545 5.48807C25.4284 4.9976 28.3983 4.20281 30.8523 3.32107C33.0538 2.53007 35.3868 2.03704 37.7156 2.2576C43.9157 2.84498 48.6718 8.02034 48.7342 14.2478L49.0574 46.6971C49.0882 49.8192 46.3085 52.2229 43.2234 51.742C41.0291 51.3997 39.3901 49.5194 37.9305 47.8455C36.0739 45.7163 32.8179 44.1937 28.991 43.8142C29.3235 43.2666 29.5107 42.6237 29.4988 41.9422L29.492 41.7625L29.117 36.2625L22.1326 36.739L22.5076 42.239C22.5562 42.951 22.815 43.5985 23.2186 44.1258C22.4785 44.2838 21.7682 44.4857 21.0945 44.7263C17.847 45.8868 14.4219 47.2506 11.0145 46.7195C6.15466 45.9617 2.43982 41.9849 2.01543 37.0847L0.0505881 14.3963ZM20.6326 14.7381L21.3826 25.7381L28.367 25.2625L27.617 14.2625L20.6326 14.7381Z" fill="white"/>
</svg>
