<svg width="50" height="52" viewBox="0 0 50 52" fill="none" xmlns="http://www.w3.org/2000/svg">
<path d="M0.0505371 14.3962C-0.662714 6.15523 6.26571 -0.718739 14.5007 0.0603027L17.1912 0.316162C17.3328 0.32959 17.4534 0.364425 17.5779 0.43335C18.437 0.909864 18.5152 2.4619 17.6355 2.89917C16.7261 3.35094 16.011 3.79949 15.5652 4.21851C13.7981 5.88058 16.9259 6.44832 22.5535 5.48804C25.4276 4.99755 28.3991 4.20288 30.8533 3.32104C33.0547 2.53012 35.3869 2.037 37.7156 2.25757C43.9159 2.84491 48.671 8.02102 48.7332 14.2488L49.0564 46.697C49.0872 49.819 46.3093 52.2225 43.2244 51.7419C41.03 51.3999 39.391 49.5194 37.9314 47.8455C36.0748 45.7164 32.8179 44.1937 28.991 43.8142C29.3235 43.2666 29.5107 42.6237 29.4988 41.9421L29.4919 41.7625L29.1169 36.2625L22.1326 36.739L22.5076 42.239C22.5562 42.951 22.8149 43.5985 23.2185 44.1257C22.4786 44.2836 21.7682 44.4846 21.0945 44.7253C17.8468 45.8858 14.4221 47.2507 11.0144 46.7195C6.15453 45.9617 2.43977 41.985 2.01538 37.0847L0.0505371 14.3962ZM20.6326 14.738L21.3826 25.738L28.3669 25.2625L27.6169 14.2625L20.6326 14.738Z" fill="#05A3FF"/>
</svg>
